<?xml version="1.0" encoding="iso-8859-1"?>
<!-- Uploaded to: SVG Repo, www.svgrepo.com, Generator: SVG Repo Mixer Tools -->
<svg height="800px" width="800px" version="1.1" id="Layer_1" xmlns="http://www.w3.org/2000/svg" xmlns:xlink="http://www.w3.org/1999/xlink" 
	 viewBox="0 0 512 512" xml:space="preserve">
<g>
	<path style="fill:#B3D8F4;" d="M318.061,418.909H256h-62.061c-12.853,0-23.273,10.418-23.273,23.273
		c0,12.853,10.42,23.273,23.273,23.273H256h62.061c12.853,0,23.273-10.42,23.273-23.273
		C341.333,429.327,330.913,418.909,318.061,418.909z"/>
	<path style="fill:#B3D8F4;" d="M488.727,232.727h-54.481h-23.287h-23.327H256H124.368h-23.327H77.754H23.273
		C10.42,232.727,0,243.146,0,256c0,12.853,10.42,23.273,23.273,23.273h77.514h6.346H256h151.996h0.227h80.505
		C501.58,279.273,512,268.853,512,256C512,243.146,501.58,232.727,488.727,232.727z"/>
</g>
<path style="fill:#FFB655;" d="M256,46.545c-98.383,0-178.424,80.04-178.424,178.424c0,2.586,0.068,5.174,0.178,7.758h23.287h23.327
	H256h131.632h23.327h23.287c0.112-2.585,0.178-5.171,0.178-7.758C434.424,126.585,354.383,46.545,256,46.545z"/>
<path style="fill:#B3D8F4;" d="M426.667,325.818H302.545c-12.853,0-23.273,10.418-23.273,23.273
	c0,12.853,10.42,23.273,23.273,23.273h124.121c12.853,0,23.273-10.42,23.273-23.273
	C449.939,336.237,439.519,325.818,426.667,325.818z"/>
<path style="fill:#EE8700;" d="M77.576,224.97c0,2.586,0.068,5.174,0.178,7.758h23.287h23.327H256V46.545
	C157.617,46.545,77.576,126.585,77.576,224.97z"/>
<g>
	<path style="fill:#78B9EB;" d="M107.132,279.273h-6.346c1.049,0.147,2.112,0.242,3.191,0.242
		C105.019,279.515,106.074,279.417,107.132,279.273z"/>
	<path style="fill:#78B9EB;" d="M124.368,232.727h-23.327H77.754H23.273C10.42,232.727,0,243.146,0,256
		c0,12.853,10.42,23.273,23.273,23.273h77.514h6.346H256v-46.545H124.368z"/>
	<path style="fill:#78B9EB;" d="M170.667,442.182c0,12.853,10.42,23.273,23.273,23.273H256v-46.545h-62.061
		C181.087,418.909,170.667,429.327,170.667,442.182z"/>
	<path style="fill:#78B9EB;" d="M62.061,349.091c0,12.853,10.42,23.273,23.273,23.273h124.121c12.853,0,23.273-10.42,23.273-23.273
		c0-12.854-10.42-23.273-23.273-23.273H85.333C72.481,325.818,62.061,336.237,62.061,349.091z"/>
</g>
</svg>